<?xml version="1.0" encoding="UTF-8" standalone="no"?>
<!-- Created with Inkscape (http://www.inkscape.org/) -->

<svg
   version="1.1"
   id="svg1"
   width="284.49445"
   height="208.90334"
   viewBox="0 0 284.49444 208.90334"
   xmlns="http://www.w3.org/2000/svg"
   xmlns:svg="http://www.w3.org/2000/svg">
  <defs
     id="defs1" />
  <g
     id="g1"
     transform="translate(-0.26477581,-0.26568119)">
    <path
       id="path1"
       d="M -56.69334,-120.85876 V 35.81874"
       style="fill:none;stroke:#bfbfbf;stroke-width:0.3985;stroke-linecap:butt;stroke-linejoin:miter;stroke-miterlimit:10;stroke-dasharray:none;stroke-opacity:1"
       transform="matrix(1.3333333,0,0,-1.3333333,85.818667,48.024)" />
    <path
       id="path2"
       d="M -28.34666,-120.85876 V 35.81874"
       style="fill:none;stroke:#bfbfbf;stroke-width:0.3985;stroke-linecap:butt;stroke-linejoin:miter;stroke-miterlimit:10;stroke-dasharray:none;stroke-opacity:1"
       transform="matrix(1.3333333,0,0,-1.3333333,85.818667,48.024)" />
    <path
       id="path3"
       d="M 0,-120.85876 V 35.81874"
       style="fill:none;stroke:#bfbfbf;stroke-width:0.3985;stroke-linecap:butt;stroke-linejoin:miter;stroke-miterlimit:10;stroke-dasharray:none;stroke-opacity:1"
       transform="matrix(1.3333333,0,0,-1.3333333,85.818667,48.024)" />
    <path
       id="path4"
       d="M 28.34666,-120.85876 V 35.81874"
       style="fill:none;stroke:#bfbfbf;stroke-width:0.3985;stroke-linecap:butt;stroke-linejoin:miter;stroke-miterlimit:10;stroke-dasharray:none;stroke-opacity:1"
       transform="matrix(1.3333333,0,0,-1.3333333,85.818667,48.024)" />
    <path
       id="path5"
       d="M 56.69334,-120.85876 V 35.81874"
       style="fill:none;stroke:#bfbfbf;stroke-width:0.3985;stroke-linecap:butt;stroke-linejoin:miter;stroke-miterlimit:10;stroke-dasharray:none;stroke-opacity:1"
       transform="matrix(1.3333333,0,0,-1.3333333,85.818667,48.024)" />
    <path
       id="path6"
       d="M 85.04,-120.85876 V 35.81874"
       style="fill:none;stroke:#bfbfbf;stroke-width:0.3985;stroke-linecap:butt;stroke-linejoin:miter;stroke-miterlimit:10;stroke-dasharray:none;stroke-opacity:1"
       transform="matrix(1.3333333,0,0,-1.3333333,85.818667,48.024)" />
    <path
       id="path7"
       d="M 113.38669,-120.85876 V 35.81874"
       style="fill:none;stroke:#bfbfbf;stroke-width:0.3985;stroke-linecap:butt;stroke-linejoin:miter;stroke-miterlimit:10;stroke-dasharray:none;stroke-opacity:1"
       transform="matrix(1.3333333,0,0,-1.3333333,85.818667,48.024)" />
    <path
       id="path8"
       d="M 141.73335,-120.85876 V 35.81874"
       style="fill:none;stroke:#bfbfbf;stroke-width:0.3985;stroke-linecap:butt;stroke-linejoin:miter;stroke-miterlimit:10;stroke-dasharray:none;stroke-opacity:1"
       transform="matrix(1.3333333,0,0,-1.3333333,85.818667,48.024)" />
    <path
       id="path9"
       d="M -64.16542,-113.38669 H 149.20543"
       style="fill:none;stroke:#bfbfbf;stroke-width:0.3985;stroke-linecap:butt;stroke-linejoin:miter;stroke-miterlimit:10;stroke-dasharray:none;stroke-opacity:1"
       transform="matrix(1.3333333,0,0,-1.3333333,85.818667,48.024)" />
    <path
       id="path10"
       d="M -64.16542,-85.04 H 149.20543"
       style="fill:none;stroke:#bfbfbf;stroke-width:0.3985;stroke-linecap:butt;stroke-linejoin:miter;stroke-miterlimit:10;stroke-dasharray:none;stroke-opacity:1"
       transform="matrix(1.3333333,0,0,-1.3333333,85.818667,48.024)" />
    <path
       id="path11"
       d="M -64.16542,-56.69334 H 149.20543"
       style="fill:none;stroke:#bfbfbf;stroke-width:0.3985;stroke-linecap:butt;stroke-linejoin:miter;stroke-miterlimit:10;stroke-dasharray:none;stroke-opacity:1"
       transform="matrix(1.3333333,0,0,-1.3333333,85.818667,48.024)" />
    <path
       id="path12"
       d="M -64.16542,-28.34666 H 149.20543"
       style="fill:none;stroke:#bfbfbf;stroke-width:0.3985;stroke-linecap:butt;stroke-linejoin:miter;stroke-miterlimit:10;stroke-dasharray:none;stroke-opacity:1"
       transform="matrix(1.3333333,0,0,-1.3333333,85.818667,48.024)" />
    <path
       id="path13"
       d="M -64.16542,0 H 149.20543"
       style="fill:none;stroke:#bfbfbf;stroke-width:0.3985;stroke-linecap:butt;stroke-linejoin:miter;stroke-miterlimit:10;stroke-dasharray:none;stroke-opacity:1"
       transform="matrix(1.3333333,0,0,-1.3333333,85.818667,48.024)" />
    <path
       id="path14"
       d="M -64.16542,28.34666 H 149.20543"
       style="fill:none;stroke:#bfbfbf;stroke-width:0.3985;stroke-linecap:butt;stroke-linejoin:miter;stroke-miterlimit:10;stroke-dasharray:none;stroke-opacity:1"
       transform="matrix(1.3333333,0,0,-1.3333333,85.818667,48.024)" />
    <path
       id="path15"
       d="m -56.69334,-1.99255 v 3.9851"
       style="fill:none;stroke:#000000;stroke-width:0.3985;stroke-linecap:round;stroke-linejoin:miter;stroke-miterlimit:10;stroke-dasharray:none;stroke-opacity:1"
       transform="matrix(1.3333333,0,0,-1.3333333,85.818667,48.024)" />
    <path
       id="path16"
       d="m -28.34666,-1.99255 v 3.9851"
       style="fill:none;stroke:#000000;stroke-width:0.3985;stroke-linecap:round;stroke-linejoin:miter;stroke-miterlimit:10;stroke-dasharray:none;stroke-opacity:1"
       transform="matrix(1.3333333,0,0,-1.3333333,85.818667,48.024)" />
    <path
       id="path17"
       d="m 28.34666,-1.99255 v 3.9851"
       style="fill:none;stroke:#000000;stroke-width:0.3985;stroke-linecap:round;stroke-linejoin:miter;stroke-miterlimit:10;stroke-dasharray:none;stroke-opacity:1"
       transform="matrix(1.3333333,0,0,-1.3333333,85.818667,48.024)" />
    <path
       id="path18"
       d="m 56.69334,-1.99255 v 3.9851"
       style="fill:none;stroke:#000000;stroke-width:0.3985;stroke-linecap:round;stroke-linejoin:miter;stroke-miterlimit:10;stroke-dasharray:none;stroke-opacity:1"
       transform="matrix(1.3333333,0,0,-1.3333333,85.818667,48.024)" />
    <path
       id="path19"
       d="m 85.04,-1.99255 v 3.9851"
       style="fill:none;stroke:#000000;stroke-width:0.3985;stroke-linecap:round;stroke-linejoin:miter;stroke-miterlimit:10;stroke-dasharray:none;stroke-opacity:1"
       transform="matrix(1.3333333,0,0,-1.3333333,85.818667,48.024)" />
    <path
       id="path20"
       d="m 113.38669,-1.99255 v 3.9851"
       style="fill:none;stroke:#000000;stroke-width:0.3985;stroke-linecap:round;stroke-linejoin:miter;stroke-miterlimit:10;stroke-dasharray:none;stroke-opacity:1"
       transform="matrix(1.3333333,0,0,-1.3333333,85.818667,48.024)" />
    <path
       id="path21"
       d="m 141.73335,-1.99255 v 3.9851"
       style="fill:none;stroke:#000000;stroke-width:0.3985;stroke-linecap:round;stroke-linejoin:miter;stroke-miterlimit:10;stroke-dasharray:none;stroke-opacity:1"
       transform="matrix(1.3333333,0,0,-1.3333333,85.818667,48.024)" />
    <path
       id="path22"
       d="m -1.99255,-113.38669 h 3.9851"
       style="fill:none;stroke:#000000;stroke-width:0.3985;stroke-linecap:round;stroke-linejoin:miter;stroke-miterlimit:10;stroke-dasharray:none;stroke-opacity:1"
       transform="matrix(1.3333333,0,0,-1.3333333,85.818667,48.024)" />
    <path
       id="path23"
       d="m -1.99255,-85.04 h 3.9851"
       style="fill:none;stroke:#000000;stroke-width:0.3985;stroke-linecap:round;stroke-linejoin:miter;stroke-miterlimit:10;stroke-dasharray:none;stroke-opacity:1"
       transform="matrix(1.3333333,0,0,-1.3333333,85.818667,48.024)" />
    <path
       id="path24"
       d="m -1.99255,-56.69334 h 3.9851"
       style="fill:none;stroke:#000000;stroke-width:0.3985;stroke-linecap:round;stroke-linejoin:miter;stroke-miterlimit:10;stroke-dasharray:none;stroke-opacity:1"
       transform="matrix(1.3333333,0,0,-1.3333333,85.818667,48.024)" />
    <path
       id="path25"
       d="m -1.99255,-28.34666 h 3.9851"
       style="fill:none;stroke:#000000;stroke-width:0.3985;stroke-linecap:round;stroke-linejoin:miter;stroke-miterlimit:10;stroke-dasharray:none;stroke-opacity:1"
       transform="matrix(1.3333333,0,0,-1.3333333,85.818667,48.024)" />
    <path
       id="path26"
       d="m -1.99255,28.34666 h 3.9851"
       style="fill:none;stroke:#000000;stroke-width:0.3985;stroke-linecap:round;stroke-linejoin:miter;stroke-miterlimit:10;stroke-dasharray:none;stroke-opacity:1"
       transform="matrix(1.3333333,0,0,-1.3333333,85.818667,48.024)" />
    <path
       id="path27"
       d="M -64.16542,0 H 148.74716"
       style="fill:none;stroke:#000000;stroke-width:0.3985;stroke-linecap:butt;stroke-linejoin:miter;stroke-miterlimit:10;stroke-dasharray:none;stroke-opacity:1"
       transform="matrix(1.3333333,0,0,-1.3333333,85.818667,48.024)" />
    <path
       id="path28"
       d="M -1.19551,1.59401 C -1.09587,0.99626 0,0.09961 0.29886,0 0,-0.09961 -1.09587,-0.99626 -1.19551,-1.59401"
       style="fill:none;stroke:#000000;stroke-width:0.31879;stroke-linecap:round;stroke-linejoin:round;stroke-miterlimit:10;stroke-dasharray:none;stroke-opacity:1"
       transform="matrix(1.3333333,0,0,-1.3333333,284.14821,48.024)" />
    <path
       id="path29"
       d="M 0,-120.85876 V 35.36046"
       style="fill:none;stroke:#000000;stroke-width:0.3985;stroke-linecap:butt;stroke-linejoin:miter;stroke-miterlimit:10;stroke-dasharray:none;stroke-opacity:1"
       transform="matrix(1.3333333,0,0,-1.3333333,85.818667,48.024)" />
    <path
       id="path30"
       d="M -1.19551,1.59401 C -1.09587,0.99626 0,0.09961 0.29886,0 0,-0.09961 -1.09587,-0.99626 -1.19551,-1.59401"
       style="fill:none;stroke:#000000;stroke-width:0.31879;stroke-linecap:round;stroke-linejoin:round;stroke-miterlimit:10;stroke-dasharray:none;stroke-opacity:1"
       transform="matrix(0,-1.3333333,-1.3333333,0,85.818667,0.87672)" />
    <g
       id="g30"
       aria-label="−2"
       transform="matrix(1.3333333,0,0,1.3333333,3.0146667,61.069333)">
      <path
         id="path31"
         d="m 5.567125,-1.8039531 c 0.1289062,0 0.3046875,0 0.3046875,-0.1875 0,-0.1875 -0.1757813,-0.1875 -0.3046875,-0.1875 H 1.0085312 c -0.1289062,0 -0.30468745,0 -0.30468745,0.1875 0,0.1875 0.17578125,0.1875 0.30468745,0.1875 z m 0,0"
         style="fill:#000000;fill-opacity:1;fill-rule:nonzero;stroke:none" />
      <path
         id="path32"
         d="m 8.8366562,-1.6281719 c 0.1289063,-0.1171875 0.4570313,-0.375 0.5859375,-0.4921875 0.4921875,-0.4570312 0.9609373,-0.890625 0.9609373,-1.6171875 0,-0.9492187 -0.7968748,-1.5585937 -1.7929685,-1.5585937 -0.9492188,0 -1.5820313,0.7265625 -1.5820313,1.4296875 0,0.3984375 0.3164063,0.4453125 0.421875,0.4453125 0.1640625,0 0.4101563,-0.1171875 0.4101563,-0.421875 0,-0.4101563 -0.3984375,-0.4101563 -0.4921875,-0.4101563 0.234375,-0.5859375 0.7734375,-0.7851562 1.1601562,-0.7851562 0.7382813,0 1.125,0.6328125 1.125,1.3007812 0,0.8320313 -0.5859375,1.4296875 -1.5234375,2.4023438 l -1.0078125,1.03124998 c -0.09375,0.09375 -0.09375,0.10546875 -0.09375,0.304687495 H 10.160875 L 10.383531,-1.4289531 h -0.246094 c -0.02344,0.1640625 -0.08203,0.56249998 -0.1757808,0.71484373 -0.046875,0.0585938 -0.65625,0.0585938 -0.7851562,0.0585938 H 7.7585312 Z m 0,0"
         style="fill:#000000;fill-opacity:1;fill-rule:nonzero;stroke:none" />
    </g>
    <g
       id="g32"
       aria-label="−1"
       transform="matrix(1.3333333,0,0,1.3333333,40.809333,61.069333)">
      <path
         id="path33"
         d="m 5.5658516,-1.8039531 c 0.1289062,0 0.3046875,0 0.3046875,-0.1875 0,-0.1875 -0.1757813,-0.1875 -0.3046875,-0.1875 H 1.0072578 c -0.12890624,0 -0.30468749,0 -0.30468749,0.1875 0,0.1875 0.17578125,0.1875 0.30468749,0.1875 z m 0,0"
         style="fill:#000000;fill-opacity:1;fill-rule:nonzero;stroke:none" />
      <path
         id="path34"
         d="m 9.0931953,-5.0734844 c 0,-0.2226562 -0.023437,-0.2226562 -0.234375,-0.2226562 -0.328125,0.3164062 -0.75,0.5039062 -1.5117187,0.5039062 v 0.2695313 c 0.2226562,0 0.6445312,0 1.1132812,-0.2226563 v 4.08984378 c 0,0.29296875 -0.023437,0.3984375 -0.7851562,0.3984375 h -0.28125 V 7.34375e-4 c 0.328125,-0.023437495 1.0195312,-0.023437495 1.3710937,-0.023437495 0.3632813,0 1.0546875,0 1.3828127,0.023437495 V -0.25707812 H 9.8666328 c -0.75,0 -0.7734375,-0.10546875 -0.7734375,-0.3984375 z m 0,0"
         style="fill:#000000;fill-opacity:1;fill-rule:nonzero;stroke:none" />
    </g>
    <path
       id="path35"
       d="m 2.5066094,-5.0734844 c 0,-0.2226562 -0.023437,-0.2226562 -0.234375,-0.2226562 -0.328125,0.3164062 -0.75,0.5039062 -1.51171878,0.5039062 v 0.2695313 c 0.22265625,0 0.64453128,0 1.11328128,-0.2226563 v 4.08984378 c 0,0.29296875 -0.023437,0.3984375 -0.7851563,0.3984375 H 0.80739062 V 7.34375e-4 C 1.1355156,-0.02270312 1.8269219,-0.02270312 2.1784844,-0.02270312 c 0.3632812,0 1.0546875,0 1.3828125,0.023437495 V -0.25707812 h -0.28125 c -0.75,0 -0.7734375,-0.10546875 -0.7734375,-0.3984375 z m 0,0"
       style="fill:#000000;fill-opacity:1;fill-rule:nonzero;stroke:none"
       aria-label="1"
       transform="matrix(1.3333333,0,0,1.3333333,120.79067,61.069333)" />
    <path
       id="path36"
       d="m 2.2504531,-1.6281719 c 0.1289063,-0.1171875 0.4570313,-0.375 0.5859375,-0.4921875 0.4921875,-0.4570312 0.9609375,-0.890625 0.9609375,-1.6171875 0,-0.9492187 -0.796875,-1.5585937 -1.7929687,-1.5585937 -0.9492188,0 -1.58203127,0.7265625 -1.58203127,1.4296875 0,0.3984375 0.31640625,0.4453125 0.421875,0.4453125 0.16406247,0 0.41015627,-0.1171875 0.41015627,-0.421875 0,-0.4101563 -0.39843752,-0.4101563 -0.49218752,-0.4101563 0.234375,-0.5859375 0.77343752,-0.7851562 1.16015622,-0.7851562 0.7382813,0 1.125,0.6328125 1.125,1.3007812 0,0.8320313 -0.5859375,1.4296875 -1.5234375,2.4023438 l -1.00781247,1.03124998 c -0.09375,0.09375 -0.09375,0.10546875 -0.09375,0.304687495 H 3.5746719 L 3.7973281,-1.4289531 H 3.5512344 c -0.023437,0.1640625 -0.082031,0.56249998 -0.1757813,0.71484373 -0.046875,0.0585938 -0.65625,0.0585938 -0.7851562,0.0585938 H 1.1723281 Z m 0,0"
       style="fill:#000000;fill-opacity:1;fill-rule:nonzero;stroke:none"
       aria-label="2"
       transform="matrix(1.3333333,0,0,1.3333333,158.58533,61.069333)" />
    <path
       id="path37"
       d="m 2.0167344,-2.6594219 c 0.6328125,0 1.03125,0.4570313 1.03125,1.3007813 0,0.99609373 -0.5742188,1.28906248 -0.9960938,1.28906248 -0.4335937,0 -1.03125,-0.1640625 -1.31249998,-0.5859375 0.29296878,0 0.49218748,-0.17578125 0.49218748,-0.44531248 0,-0.2578125 -0.1875,-0.4335938 -0.44531248,-0.4335938 -0.2109375,0 -0.43359375,0.1289063 -0.43359375,0.4570313 0,0.74999998 0.80859373,1.24218748 1.72265623,1.24218748 1.0546875,0 1.7929688,-0.7265625 1.7929688,-1.52343748 0,-0.6679688 -0.515625,-1.265625 -1.3359375,-1.4414063 0.6328125,-0.2226562 1.1015625,-0.7734375 1.1015625,-1.40625 0,-0.6328125 -0.7148438,-1.0898437 -1.546875,-1.0898437 -0.8554688,0 -1.50000003,0.4570312 -1.50000003,1.0664062 0,0.2929688 0.19921875,0.421875 0.41015625,0.421875 0.24609378,0 0.41015628,-0.1757812 0.41015628,-0.4101562 0,-0.2929688 -0.2578125,-0.3984375 -0.43359378,-0.4101563 0.33984378,-0.4335937 0.94921878,-0.46875 1.08984378,-0.46875 0.2109375,0 0.8085937,0.070312 0.8085937,0.890625 0,0.5625 -0.2226562,0.890625 -0.3398437,1.0195313 -0.234375,0.2460937 -0.421875,0.2578125 -0.9023438,0.2929687 -0.1523437,0.011719 -0.2226562,0.023437 -0.2226562,0.1171875 0,0.1171875 0.070312,0.1171875 0.2109375,0.1171875 z m 0,0"
       style="fill:#000000;fill-opacity:1;fill-rule:nonzero;stroke:none"
       aria-label="3"
       transform="matrix(1.3333333,0,0,1.3333333,196.38133,61.069333)" />
    <path
       id="path38"
       d="m 3.1404609,-5.1555156 c 0,-0.1640625 0,-0.2226563 -0.1640625,-0.2226563 -0.1054687,0 -0.1171875,0.011719 -0.1992187,0.1171875 l -2.54296876,3.6914063 v 0.2578125 H 2.4842109 v 0.66796873 c 0,0.29296875 -0.023437,0.38671875 -0.6328125,0.38671875 h -0.1875 V 7.34375e-4 C 2.3435859,-0.02270312 2.3553047,-0.02270312 2.8123359,-0.02270312 c 0.4570313,0 0.46875,0 1.1484375,0.023437495 V -0.25707812 h -0.1875 c -0.609375,0 -0.6328125,-0.09375 -0.6328125,-0.38671875 V -1.3117656 h 0.84375 v -0.2578125 h -0.84375 z m -0.5976562,0.6445312 v 2.9414063 H 0.51546094 Z m 0,0"
       style="fill:#000000;fill-opacity:1;fill-rule:nonzero;stroke:none"
       aria-label="4"
       transform="matrix(1.3333333,0,0,1.3333333,234.176,61.069333)" />
    <path
       id="path39"
       d="m 1.1118438,-4.4758281 c 0.1054687,0.035156 0.421875,0.1054687 0.7617187,0.1054687 0.9960938,0 1.59375,-0.6914062 1.59375,-0.8203125 0,-0.082031 -0.046875,-0.1054687 -0.09375,-0.1054687 -0.011719,0 -0.023437,0 -0.1054687,0.035156 -0.3046875,0.1171875 -0.6679688,0.2226563 -1.1015625,0.2226563 -0.46875,0 -0.8554688,-0.1289063 -1.1132813,-0.2226563 -0.0703125,-0.035156 -0.09375,-0.035156 -0.09375,-0.035156 -0.10546875,0 -0.10546875,0.082031 -0.10546875,0.234375 v 2.3320312 c 0,0.140625 0,0.234375 0.12890625,0.234375 0.0585938,0 0.0820313,-0.035156 0.1289063,-0.09375 0.09375,-0.1171875 0.3984375,-0.5273437 1.0664062,-0.5273437 0.4453125,0 0.6679688,0.3632812 0.7382813,0.515625 0.1289062,0.2929687 0.1523437,0.65625 0.1523437,0.9726562 0,0.2929688 -0.011719,0.71484378 -0.234375,1.06640628 -0.1523437,0.24609375 -0.46875,0.4921875 -0.890625,0.4921875 -0.515625,0 -1.03125,-0.328125 -1.20703125,-0.84375 0.0234375,0 0.0703125,0 0.0703125,0 0.22265625,0 0.39843755,-0.14062498 0.39843755,-0.38671878 0,-0.2929687 -0.2226563,-0.3984375 -0.3867188,-0.3984375 -0.140625,0 -0.3984375,0.082031 -0.3984375,0.421875 0,0.71484378 0.6210938,1.44140628 1.5351563,1.44140628 0.9960937,0 1.8398437,-0.7734375 1.8398437,-1.75781248 0,-0.9257813 -0.6679687,-1.7460938 -1.6054687,-1.7460938 -0.3984375,0 -0.7734375,0.1289063 -1.078125,0.3984375 z m 0,0"
       style="fill:#000000;fill-opacity:1;fill-rule:nonzero;stroke:none"
       aria-label="5"
       transform="matrix(1.3333333,0,0,1.3333333,271.97067,61.069333)" />
    <g
       id="g39"
       aria-label="−4"
       transform="matrix(1.3333333,0,0,1.3333333,65.193333,202.07467)">
      <path
         id="path40"
         d="m 5.5649609,-1.8050234 c 0.1289063,0 0.3046875,0 0.3046875,-0.1875 0,-0.1875 -0.1757812,-0.1875 -0.3046875,-0.1875 H 1.0063672 c -0.12890626,0 -0.30468751,0 -0.30468751,0.1875 0,0.1875 0.17578125,0.1875 0.30468751,0.1875 z m 0,0"
         style="fill:#000000;fill-opacity:1;fill-rule:nonzero;stroke:none" />
      <path
         id="path41"
         d="m 9.7280469,-5.1565859 c 0,-0.1640625 0,-0.2226563 -0.1640625,-0.2226563 -0.1054688,0 -0.1171875,0.011719 -0.1992188,0.1171875 l -2.5429687,3.6914063 v 0.2578125 h 2.25 v 0.66796871 c 0,0.29296875 -0.023437,0.38671875 -0.6328125,0.38671875 h -0.1875 V -3.359375e-4 C 8.9311719,-0.02377344 8.9428906,-0.02377344 9.3999219,-0.02377344 c 0.4570312,0 0.46875,0 1.1484371,0.0234375025 V -0.25814844 h -0.1875 c -0.6093746,0 -0.6328121,-0.09375 -0.6328121,-0.38671875 V -1.3128359 H 10.571797 V -1.5706484 H 9.7280469 Z m -0.5976563,0.6445312 v 2.9414063 H 7.1030469 Z m 0,0"
         style="fill:#000000;fill-opacity:1;fill-rule:nonzero;stroke:none" />
    </g>
    <g
       id="g41"
       aria-label="−3"
       transform="matrix(1.3333333,0,0,1.3333333,65.193333,164.27867)">
      <path
         id="path42"
         d="m 5.5649609,-1.8056797 c 0.1289063,0 0.3046875,0 0.3046875,-0.1875 0,-0.1875 -0.1757812,-0.1875 -0.3046875,-0.1875 H 1.0063672 c -0.12890626,0 -0.30468751,0 -0.30468751,0.1875 0,0.1875 0.17578125,0.1875 0.30468751,0.1875 z m 0,0"
         style="fill:#000000;fill-opacity:1;fill-rule:nonzero;stroke:none" />
      <path
         id="path43"
         d="m 8.6030469,-2.6611484 c 0.6328125,0 1.03125,0.4570312 1.03125,1.3007812 0,0.99609376 -0.5742188,1.28906251 -0.9960938,1.28906251 -0.4335937,0 -1.03125,-0.1640625 -1.3125,-0.5859375 0.2929688,0 0.4921875,-0.17578125 0.4921875,-0.44531251 0,-0.2578125 -0.1875,-0.4335937 -0.4453125,-0.4335937 -0.2109375,0 -0.4335937,0.1289062 -0.4335937,0.4570312 0,0.75000001 0.8085937,1.24218751 1.7226562,1.24218751 1.0546875,0 1.7929684,-0.7265625 1.7929684,-1.52343751 0,-0.6679687 -0.5156246,-1.265625 -1.3359371,-1.4414062 0.6328125,-0.2226563 1.1015621,-0.7734375 1.1015621,-1.40625 0,-0.6328125 -0.7148434,-1.0898438 -1.5468746,-1.0898438 -0.8554688,0 -1.5,0.4570313 -1.5,1.0664063 0,0.2929687 0.1992187,0.421875 0.4101562,0.421875 0.2460938,0 0.4101563,-0.1757813 0.4101563,-0.4101563 0,-0.2929687 -0.2578125,-0.3984375 -0.4335938,-0.4101562 0.3398438,-0.4335938 0.9492188,-0.46875 1.0898438,-0.46875 0.2109375,0 0.8085937,0.070312 0.8085937,0.890625 0,0.5625 -0.2226562,0.890625 -0.3398437,1.0195312 -0.234375,0.2460938 -0.421875,0.2578125 -0.9023438,0.2929688 -0.1523437,0.011719 -0.2226562,0.023437 -0.2226562,0.1171875 0,0.1171875 0.070313,0.1171875 0.2109375,0.1171875 z m 0,0"
         style="fill:#000000;fill-opacity:1;fill-rule:nonzero;stroke:none" />
    </g>
    <g
       id="g43"
       aria-label="−2"
       transform="matrix(1.3333333,0,0,1.3333333,65.193333,126.484)">
      <path
         id="path44"
         d="m 5.5649609,-1.8044062 c 0.1289063,0 0.3046875,0 0.3046875,-0.1875 0,-0.1875 -0.1757812,-0.1875 -0.3046875,-0.1875 H 1.0063672 c -0.12890626,0 -0.30468751,0 -0.30468751,0.1875 0,0.1875 0.17578125,0.1875 0.30468751,0.1875 z m 0,0"
         style="fill:#000000;fill-opacity:1;fill-rule:nonzero;stroke:none" />
      <path
         id="path45"
         d="m 8.8374219,-1.628625 c 0.1289062,-0.1171875 0.4570312,-0.375 0.5859375,-0.4921875 0.4921875,-0.4570312 0.9609376,-0.890625 0.9609376,-1.6171875 0,-0.9492187 -0.7968751,-1.5585937 -1.7929689,-1.5585937 -0.9492187,0 -1.5820312,0.7265625 -1.5820312,1.4296875 0,0.3984375 0.3164062,0.4453125 0.421875,0.4453125 0.1640625,0 0.4101562,-0.1171875 0.4101562,-0.421875 0,-0.4101563 -0.3984375,-0.4101563 -0.4921875,-0.4101563 0.234375,-0.5859375 0.7734375,-0.7851562 1.1601563,-0.7851562 0.7382812,0 1.125,0.6328125 1.125,1.3007812 0,0.8320313 -0.5859375,1.4296875 -1.5234375,2.4023438 l -1.0078125,1.03124995 c -0.09375,0.09375 -0.09375,0.10546875 -0.09375,0.3046875 h 3.1523441 l 0.222656,-1.42968745 h -0.246094 c -0.02344,0.1640625 -0.08203,0.56249995 -0.1757811,0.7148437 -0.046875,0.0585938 -0.65625,0.0585938 -0.7851563,0.0585938 H 7.7592969 Z m 0,0"
         style="fill:#000000;fill-opacity:1;fill-rule:nonzero;stroke:none" />
    </g>
    <g
       id="g45"
       aria-label="−1"
       transform="matrix(1.3333333,0,0,1.3333333,65.193333,88.689333)">
      <path
         id="path46"
         d="m 5.5649609,-1.8060625 c 0.1289063,0 0.3046875,0 0.3046875,-0.1875 0,-0.1875 -0.1757812,-0.1875 -0.3046875,-0.1875 H 1.0063672 c -0.12890626,0 -0.30468751,0 -0.30468751,0.1875 0,0.1875 0.17578125,0.1875 0.30468751,0.1875 z m 0,0"
         style="fill:#000000;fill-opacity:1;fill-rule:nonzero;stroke:none" />
      <path
         id="path47"
         d="m 9.0952344,-5.0755937 c 0,-0.2226563 -0.023437,-0.2226563 -0.234375,-0.2226563 -0.328125,0.3164063 -0.75,0.5039063 -1.5117188,0.5039063 v 0.2695312 c 0.2226563,0 0.6445313,0 1.1132813,-0.2226562 v 4.0898437 c 0,0.29296875 -0.023437,0.3984375 -0.7851563,0.3984375 h -0.28125 v 0.2578125 c 0.328125,-0.0234375 1.0195313,-0.0234375 1.3710938,-0.0234375 0.3632812,0 1.0546875,0 1.3828126,0.0234375 V -0.2591875 H 9.8686719 c -0.75,0 -0.7734375,-0.10546875 -0.7734375,-0.3984375 z m 0,0"
         style="fill:#000000;fill-opacity:1;fill-rule:nonzero;stroke:none" />
    </g>
    <path
       id="path48"
       d="m 3.9029531,-2.5424219 c 0,-0.8554687 -0.09375,-1.3710937 -0.3515625,-1.875 -0.3515625,-0.703125 -0.9960937,-0.8789062 -1.4414062,-0.8789062 -0.9960938,0 -1.37109378,0.75 -1.47656253,0.9726562 -0.29296875,0.5742188 -0.3046875,1.3710938 -0.3046875,1.78125 0,0.5273438 0.0234375,1.3359375 0.41015625,1.96875003 0.36328128,0.5859375 0.94921878,0.73828125 1.37109378,0.73828125 0.3867187,0 1.0664062,-0.1171875 1.4648437,-0.90234375 0.2929688,-0.57421873 0.328125,-1.28906253 0.328125,-1.80468753 z m -1.7929687,2.48437503 c -0.2695313,0 -0.8203125,-0.12890625 -0.984375,-0.96093753 -0.09375,-0.4570312 -0.09375,-1.2070312 -0.09375,-1.6171875 0,-0.5507812 0,-1.1132812 0.09375,-1.546875 0.1640625,-0.8085937 0.7851562,-0.890625 0.984375,-0.890625 0.2695312,0 0.8203125,0.1289063 0.984375,0.8554688 0.09375,0.4453125 0.09375,1.0429687 0.09375,1.5820312 0,0.46875 0,1.1835938 -0.09375,1.6289063 -0.1640625,0.84374998 -0.7148438,0.94921873 -0.984375,0.94921873 z m 0,0"
       style="fill:#000000;fill-opacity:1;fill-rule:nonzero;stroke:none"
       aria-label="0"
       transform="matrix(1.3333333,0,0,1.3333333,76.632,58.413333)" />
    <path
       id="path49"
       d="m 2.5092344,-5.0739609 c 0,-0.2226563 -0.023437,-0.2226563 -0.234375,-0.2226563 -0.328125,0.3164063 -0.75,0.5039063 -1.51171878,0.5039063 v 0.2695312 c 0.22265625,0 0.64453128,0 1.11328128,-0.2226562 v 4.08984371 c 0,0.29296875 -0.023437,0.3984375 -0.7851563,0.3984375 H 0.81001562 V 2.578125e-4 C 1.1381406,-0.02317969 1.8295469,-0.02317969 2.1811094,-0.02317969 c 0.3632812,0 1.0546875,0 1.3828125,0.0234375025 V -0.25755469 h -0.28125 c -0.75,0 -0.7734375,-0.10546875 -0.7734375,-0.3984375 z m 0,0"
       style="fill:#000000;fill-opacity:1;fill-rule:nonzero;stroke:none"
       aria-label="1"
       transform="matrix(1.3333333,0,0,1.3333333,73.974667,13.652)" />
  </g>
</svg>
