<?xml version="1.0" encoding="UTF-8" standalone="no"?>
<!-- Created with Inkscape (http://www.inkscape.org/) -->

<svg
   version="1.1"
   id="svg1"
   width="284.49445"
   height="208.90334"
   viewBox="0 0 284.49445 208.90333"
   xmlns="http://www.w3.org/2000/svg"
   xmlns:svg="http://www.w3.org/2000/svg">
  <defs
     id="defs1" />
  <g
     id="g1"
     transform="translate(-16.654109,-11.412348)">
    <path
       id="path1"
       d="M -56.69334,-120.85876 V 35.81874"
       style="fill:none;stroke:#bfbfbf;stroke-width:0.3985;stroke-linecap:butt;stroke-linejoin:miter;stroke-miterlimit:10;stroke-dasharray:none;stroke-opacity:1"
       transform="matrix(1.3333333,0,0,-1.3333333,102.208,59.170667)" />
    <path
       id="path2"
       d="M -28.34666,-120.85876 V 35.81874"
       style="fill:none;stroke:#bfbfbf;stroke-width:0.3985;stroke-linecap:butt;stroke-linejoin:miter;stroke-miterlimit:10;stroke-dasharray:none;stroke-opacity:1"
       transform="matrix(1.3333333,0,0,-1.3333333,102.208,59.170667)" />
    <path
       id="path3"
       d="M 0,-120.85876 V 35.81874"
       style="fill:none;stroke:#bfbfbf;stroke-width:0.3985;stroke-linecap:butt;stroke-linejoin:miter;stroke-miterlimit:10;stroke-dasharray:none;stroke-opacity:1"
       transform="matrix(1.3333333,0,0,-1.3333333,102.208,59.170667)" />
    <path
       id="path4"
       d="M 28.34666,-120.85876 V 35.81874"
       style="fill:none;stroke:#bfbfbf;stroke-width:0.3985;stroke-linecap:butt;stroke-linejoin:miter;stroke-miterlimit:10;stroke-dasharray:none;stroke-opacity:1"
       transform="matrix(1.3333333,0,0,-1.3333333,102.208,59.170667)" />
    <path
       id="path5"
       d="M 56.69334,-120.85876 V 35.81874"
       style="fill:none;stroke:#bfbfbf;stroke-width:0.3985;stroke-linecap:butt;stroke-linejoin:miter;stroke-miterlimit:10;stroke-dasharray:none;stroke-opacity:1"
       transform="matrix(1.3333333,0,0,-1.3333333,102.208,59.170667)" />
    <path
       id="path6"
       d="M 85.04,-120.85876 V 35.81874"
       style="fill:none;stroke:#bfbfbf;stroke-width:0.3985;stroke-linecap:butt;stroke-linejoin:miter;stroke-miterlimit:10;stroke-dasharray:none;stroke-opacity:1"
       transform="matrix(1.3333333,0,0,-1.3333333,102.208,59.170667)" />
    <path
       id="path7"
       d="M 113.38669,-120.85876 V 35.81874"
       style="fill:none;stroke:#bfbfbf;stroke-width:0.3985;stroke-linecap:butt;stroke-linejoin:miter;stroke-miterlimit:10;stroke-dasharray:none;stroke-opacity:1"
       transform="matrix(1.3333333,0,0,-1.3333333,102.208,59.170667)" />
    <path
       id="path8"
       d="M 141.73335,-120.85876 V 35.81874"
       style="fill:none;stroke:#bfbfbf;stroke-width:0.3985;stroke-linecap:butt;stroke-linejoin:miter;stroke-miterlimit:10;stroke-dasharray:none;stroke-opacity:1"
       transform="matrix(1.3333333,0,0,-1.3333333,102.208,59.170667)" />
    <path
       id="path9"
       d="M -64.16542,-113.38669 H 149.20543"
       style="fill:none;stroke:#bfbfbf;stroke-width:0.3985;stroke-linecap:butt;stroke-linejoin:miter;stroke-miterlimit:10;stroke-dasharray:none;stroke-opacity:1"
       transform="matrix(1.3333333,0,0,-1.3333333,102.208,59.170667)" />
    <path
       id="path10"
       d="M -64.16542,-85.04 H 149.20543"
       style="fill:none;stroke:#bfbfbf;stroke-width:0.3985;stroke-linecap:butt;stroke-linejoin:miter;stroke-miterlimit:10;stroke-dasharray:none;stroke-opacity:1"
       transform="matrix(1.3333333,0,0,-1.3333333,102.208,59.170667)" />
    <path
       id="path11"
       d="M -64.16542,-56.69334 H 149.20543"
       style="fill:none;stroke:#bfbfbf;stroke-width:0.3985;stroke-linecap:butt;stroke-linejoin:miter;stroke-miterlimit:10;stroke-dasharray:none;stroke-opacity:1"
       transform="matrix(1.3333333,0,0,-1.3333333,102.208,59.170667)" />
    <path
       id="path12"
       d="M -64.16542,-28.34666 H 149.20543"
       style="fill:none;stroke:#bfbfbf;stroke-width:0.3985;stroke-linecap:butt;stroke-linejoin:miter;stroke-miterlimit:10;stroke-dasharray:none;stroke-opacity:1"
       transform="matrix(1.3333333,0,0,-1.3333333,102.208,59.170667)" />
    <path
       id="path13"
       d="M -64.16542,0 H 149.20543"
       style="fill:none;stroke:#bfbfbf;stroke-width:0.3985;stroke-linecap:butt;stroke-linejoin:miter;stroke-miterlimit:10;stroke-dasharray:none;stroke-opacity:1"
       transform="matrix(1.3333333,0,0,-1.3333333,102.208,59.170667)" />
    <path
       id="path14"
       d="M -64.16542,28.34666 H 149.20543"
       style="fill:none;stroke:#bfbfbf;stroke-width:0.3985;stroke-linecap:butt;stroke-linejoin:miter;stroke-miterlimit:10;stroke-dasharray:none;stroke-opacity:1"
       transform="matrix(1.3333333,0,0,-1.3333333,102.208,59.170667)" />
    <path
       id="path15"
       d="m -56.69334,-1.99255 v 3.9851"
       style="fill:none;stroke:#000000;stroke-width:0.3985;stroke-linecap:round;stroke-linejoin:miter;stroke-miterlimit:10;stroke-dasharray:none;stroke-opacity:1"
       transform="matrix(1.3333333,0,0,-1.3333333,102.208,59.170667)" />
    <path
       id="path16"
       d="m -28.34666,-1.99255 v 3.9851"
       style="fill:none;stroke:#000000;stroke-width:0.3985;stroke-linecap:round;stroke-linejoin:miter;stroke-miterlimit:10;stroke-dasharray:none;stroke-opacity:1"
       transform="matrix(1.3333333,0,0,-1.3333333,102.208,59.170667)" />
    <path
       id="path17"
       d="m 28.34666,-1.99255 v 3.9851"
       style="fill:none;stroke:#000000;stroke-width:0.3985;stroke-linecap:round;stroke-linejoin:miter;stroke-miterlimit:10;stroke-dasharray:none;stroke-opacity:1"
       transform="matrix(1.3333333,0,0,-1.3333333,102.208,59.170667)" />
    <path
       id="path18"
       d="m 56.69334,-1.99255 v 3.9851"
       style="fill:none;stroke:#000000;stroke-width:0.3985;stroke-linecap:round;stroke-linejoin:miter;stroke-miterlimit:10;stroke-dasharray:none;stroke-opacity:1"
       transform="matrix(1.3333333,0,0,-1.3333333,102.208,59.170667)" />
    <path
       id="path19"
       d="m 85.04,-1.99255 v 3.9851"
       style="fill:none;stroke:#000000;stroke-width:0.3985;stroke-linecap:round;stroke-linejoin:miter;stroke-miterlimit:10;stroke-dasharray:none;stroke-opacity:1"
       transform="matrix(1.3333333,0,0,-1.3333333,102.208,59.170667)" />
    <path
       id="path20"
       d="m 113.38669,-1.99255 v 3.9851"
       style="fill:none;stroke:#000000;stroke-width:0.3985;stroke-linecap:round;stroke-linejoin:miter;stroke-miterlimit:10;stroke-dasharray:none;stroke-opacity:1"
       transform="matrix(1.3333333,0,0,-1.3333333,102.208,59.170667)" />
    <path
       id="path21"
       d="m 141.73335,-1.99255 v 3.9851"
       style="fill:none;stroke:#000000;stroke-width:0.3985;stroke-linecap:round;stroke-linejoin:miter;stroke-miterlimit:10;stroke-dasharray:none;stroke-opacity:1"
       transform="matrix(1.3333333,0,0,-1.3333333,102.208,59.170667)" />
    <path
       id="path22"
       d="m -1.99255,-113.38669 h 3.9851"
       style="fill:none;stroke:#000000;stroke-width:0.3985;stroke-linecap:round;stroke-linejoin:miter;stroke-miterlimit:10;stroke-dasharray:none;stroke-opacity:1"
       transform="matrix(1.3333333,0,0,-1.3333333,102.208,59.170667)" />
    <path
       id="path23"
       d="m -1.99255,-85.04 h 3.9851"
       style="fill:none;stroke:#000000;stroke-width:0.3985;stroke-linecap:round;stroke-linejoin:miter;stroke-miterlimit:10;stroke-dasharray:none;stroke-opacity:1"
       transform="matrix(1.3333333,0,0,-1.3333333,102.208,59.170667)" />
    <path
       id="path24"
       d="m -1.99255,-56.69334 h 3.9851"
       style="fill:none;stroke:#000000;stroke-width:0.3985;stroke-linecap:round;stroke-linejoin:miter;stroke-miterlimit:10;stroke-dasharray:none;stroke-opacity:1"
       transform="matrix(1.3333333,0,0,-1.3333333,102.208,59.170667)" />
    <path
       id="path25"
       d="m -1.99255,-28.34666 h 3.9851"
       style="fill:none;stroke:#000000;stroke-width:0.3985;stroke-linecap:round;stroke-linejoin:miter;stroke-miterlimit:10;stroke-dasharray:none;stroke-opacity:1"
       transform="matrix(1.3333333,0,0,-1.3333333,102.208,59.170667)" />
    <path
       id="path26"
       d="m -1.99255,28.34666 h 3.9851"
       style="fill:none;stroke:#000000;stroke-width:0.3985;stroke-linecap:round;stroke-linejoin:miter;stroke-miterlimit:10;stroke-dasharray:none;stroke-opacity:1"
       transform="matrix(1.3333333,0,0,-1.3333333,102.208,59.170667)" />
    <path
       id="path27"
       d="M -64.16542,0 H 148.74716"
       style="fill:none;stroke:#000000;stroke-width:0.3985;stroke-linecap:butt;stroke-linejoin:miter;stroke-miterlimit:10;stroke-dasharray:none;stroke-opacity:1"
       transform="matrix(1.3333333,0,0,-1.3333333,102.208,59.170667)" />
    <path
       id="path28"
       d="M -1.19551,1.59401 C -1.09587,0.99626 0,0.09961 0.29886,0 0,-0.09961 -1.09587,-0.99626 -1.19551,-1.59401"
       style="fill:none;stroke:#000000;stroke-width:0.31879;stroke-linecap:round;stroke-linejoin:round;stroke-miterlimit:10;stroke-dasharray:none;stroke-opacity:1"
       transform="matrix(1.3333333,0,0,-1.3333333,300.53755,59.170667)" />
    <path
       id="path29"
       d="M 0,-120.85876 V 35.36046"
       style="fill:none;stroke:#000000;stroke-width:0.3985;stroke-linecap:butt;stroke-linejoin:miter;stroke-miterlimit:10;stroke-dasharray:none;stroke-opacity:1"
       transform="matrix(1.3333333,0,0,-1.3333333,102.208,59.170667)" />
    <path
       id="path30"
       d="M -1.19551,1.59401 C -1.09587,0.99626 0,0.09961 0.29886,0 0,-0.09961 -1.09587,-0.99626 -1.19551,-1.59401"
       style="fill:none;stroke:#000000;stroke-width:0.31879;stroke-linecap:round;stroke-linejoin:round;stroke-miterlimit:10;stroke-dasharray:none;stroke-opacity:1"
       transform="matrix(0,-1.3333333,-1.3333333,0,102.208,12.023387)" />
    <path
       id="path31"
       d="m 141.73335,-113.38669 c 0,0 -178.76145,126.00116 -198.42669,141.73335 C -76.35857,44.07886 -17.3054,9.4393 0,0 17.3054,-9.4393 68.03201,-39.68532 68.03201,-39.68532"
       style="fill:none;stroke:#000000;stroke-width:0.59776;stroke-linecap:butt;stroke-linejoin:miter;stroke-miterlimit:10;stroke-dasharray:none;stroke-opacity:1"
       transform="matrix(1.3333333,0,0,-1.3333333,102.208,59.170667)" />
    <g
       id="g31"
       aria-label="−2"
       transform="matrix(1.3333333,0,0,1.3333333,19.404,72.216)">
      <path
         id="path32"
         d="m 5.5651641,-1.8055547 c 0.1289062,0 0.3046875,0 0.3046875,-0.1875 0,-0.1875 -0.1757813,-0.1875 -0.3046875,-0.1875 H 1.0065703 c -0.12890624,0 -0.30468749,0 -0.30468749,0.1875 0,0.1875 0.17578125,0.1875 0.30468749,0.1875 z m 0,0"
         style="fill:#000000;fill-opacity:1;fill-rule:nonzero;stroke:none" />
      <path
         id="path33"
         d="m 8.837625,-1.6297734 c 0.1289063,-0.1171875 0.4570313,-0.375 0.5859375,-0.4921875 C 9.91575,-2.5789922 10.3845,-3.0125859 10.3845,-3.7391484 c 0,-0.9492188 -0.796875,-1.5585938 -1.7929687,-1.5585938 -0.9492188,0 -1.5820313,0.7265625 -1.5820313,1.4296875 0,0.3984375 0.3164063,0.4453125 0.421875,0.4453125 0.1640625,0 0.4101563,-0.1171875 0.4101563,-0.421875 0,-0.4101562 -0.3984375,-0.4101562 -0.4921875,-0.4101562 0.234375,-0.5859375 0.7734375,-0.7851563 1.1601562,-0.7851563 0.7382813,0 1.125,0.6328125 1.125,1.3007813 0,0.8320312 -0.5859375,1.4296875 -1.5234375,2.4023437 L 7.10325,-0.30555469 C 7.0095,-0.21180469 7.0095,-0.20008594 7.0095,-8.671875e-4 h 3.152344 L 10.3845,-1.4305547 h -0.246094 c -0.02344,0.1640625 -0.08203,0.56250001 -0.175781,0.71484376 -0.046875,0.0585938 -0.65625,0.0585938 -0.7851562,0.0585938 H 7.7595 Z m 0,0"
         style="fill:#000000;fill-opacity:1;fill-rule:nonzero;stroke:none" />
    </g>
    <g
       id="g33"
       aria-label="−1"
       transform="matrix(1.3333333,0,0,1.3333333,57.2,72.216)">
      <path
         id="path34"
         d="m 5.5658203,-1.8055547 c 0.1289063,0 0.3046875,0 0.3046875,-0.1875 0,-0.1875 -0.1757812,-0.1875 -0.3046875,-0.1875 H 1.0072266 c -0.12890629,0 -0.30468754,0 -0.30468754,0.1875 0,0.1875 0.17578125,0.1875 0.30468754,0.1875 z m 0,0"
         style="fill:#000000;fill-opacity:1;fill-rule:nonzero;stroke:none" />
      <path
         id="path35"
         d="m 9.0931641,-5.0750859 c 0,-0.2226563 -0.023437,-0.2226563 -0.234375,-0.2226563 -0.328125,0.3164063 -0.75,0.5039063 -1.5117188,0.5039063 v 0.2695312 c 0.2226563,0 0.6445313,0 1.1132813,-0.2226562 v 4.08984371 c 0,0.29296875 -0.023437,0.3984375 -0.7851563,0.3984375 h -0.28125 V -8.671875e-4 C 7.7220703,-0.02430469 8.4134766,-0.02430469 8.7650391,-0.02430469 c 0.3632812,0 1.0546875,0 1.3828129,0.0234375025 V -0.25867969 H 9.8666016 c -0.75,0 -0.7734375,-0.10546875 -0.7734375,-0.3984375 z m 0,0"
         style="fill:#000000;fill-opacity:1;fill-rule:nonzero;stroke:none" />
    </g>
    <path
       id="path36"
       d="m 2.5065781,-5.0750859 c 0,-0.2226563 -0.023437,-0.2226563 -0.234375,-0.2226563 -0.328125,0.3164063 -0.75,0.5039063 -1.51171872,0.5039063 v 0.2695312 c 0.22265625,0 0.64453122,0 1.11328122,-0.2226562 v 4.08984371 c 0,0.29296875 -0.023437,0.3984375 -0.7851562,0.3984375 H 0.80735938 V -8.671875e-4 C 1.1354844,-0.02430469 1.8268906,-0.02430469 2.1784531,-0.02430469 c 0.3632813,0 1.0546875,0 1.3828125,0.0234375025 V -0.25867969 h -0.28125 c -0.75,0 -0.7734375,-0.10546875 -0.7734375,-0.3984375 z m 0,0"
       style="fill:#000000;fill-opacity:1;fill-rule:nonzero;stroke:none"
       aria-label="1"
       transform="matrix(1.3333333,0,0,1.3333333,137.18133,72.216)" />
    <path
       id="path37"
       d="m 2.2504219,-1.6297734 c 0.1289062,-0.1171875 0.4570312,-0.375 0.5859375,-0.4921875 0.4921875,-0.4570313 0.9609375,-0.890625 0.9609375,-1.6171875 0,-0.9492188 -0.796875,-1.5585938 -1.7929688,-1.5585938 -0.9492187,0 -1.58203122,0.7265625 -1.58203122,1.4296875 0,0.3984375 0.31640625,0.4453125 0.421875,0.4453125 0.16406252,0 0.41015622,-0.1171875 0.41015622,-0.421875 0,-0.4101562 -0.39843747,-0.4101562 -0.49218747,-0.4101562 0.234375,-0.5859375 0.77343747,-0.7851563 1.16015627,-0.7851563 0.7382812,0 1.125,0.6328125 1.125,1.3007813 0,0.8320312 -0.5859375,1.4296875 -1.5234375,2.4023437 l -1.00781252,1.03125001 c -0.09375,0.09375 -0.09375,0.10546875 -0.09375,0.3046875025 H 3.5746406 L 3.7972969,-1.4305547 H 3.5512031 c -0.023437,0.1640625 -0.082031,0.56250001 -0.1757812,0.71484376 -0.046875,0.0585938 -0.65625,0.0585938 -0.7851563,0.0585938 H 1.1722969 Z m 0,0"
       style="fill:#000000;fill-opacity:1;fill-rule:nonzero;stroke:none"
       aria-label="2"
       transform="matrix(1.3333333,0,0,1.3333333,174.976,72.216)" />
    <path
       id="path38"
       d="m 2.0147734,-2.6610234 c 0.6328125,0 1.03125,0.4570312 1.03125,1.3007812 0,0.99609376 -0.5742187,1.28906251 -0.9960937,1.28906251 -0.4335938,0 -1.03125,-0.1640625 -1.31250001,-0.5859375 0.29296871,0 0.49218751,-0.17578125 0.49218751,-0.44531251 0,-0.2578125 -0.1875,-0.4335937 -0.44531251,-0.4335937 -0.2109375,0 -0.43359375,0.1289062 -0.43359375,0.4570312 0,0.75000001 0.80859376,1.24218751 1.72265626,1.24218751 1.0546875,0 1.7929687,-0.7265625 1.7929687,-1.52343751 0,-0.6679687 -0.515625,-1.265625 -1.3359375,-1.4414062 0.6328125,-0.2226563 1.1015625,-0.7734375 1.1015625,-1.40625 0,-0.6328125 -0.7148437,-1.0898438 -1.546875,-1.0898438 -0.8554687,0 -1.49999996,0.4570313 -1.49999996,1.0664063 0,0.2929687 0.19921875,0.421875 0.41015625,0.421875 0.24609371,0 0.41015621,-0.1757813 0.41015621,-0.4101563 0,-0.2929687 -0.2578125,-0.3984375 -0.43359371,-0.4101562 0.33984371,-0.4335938 0.94921871,-0.46875 1.08984371,-0.46875 0.2109375,0 0.8085938,0.070312 0.8085938,0.890625 0,0.5625 -0.2226563,0.890625 -0.3398438,1.0195312 -0.234375,0.2460938 -0.421875,0.2578125 -0.9023437,0.2929688 -0.1523438,0.011719 -0.2226563,0.023437 -0.2226563,0.1171875 0,0.1171875 0.070312,0.1171875 0.2109375,0.1171875 z m 0,0"
       style="fill:#000000;fill-opacity:1;fill-rule:nonzero;stroke:none"
       aria-label="3"
       transform="matrix(1.3333333,0,0,1.3333333,212.77067,72.216)" />
    <path
       id="path39"
       d="m 3.1404297,-5.1571172 c 0,-0.1640625 0,-0.2226562 -0.1640625,-0.2226562 -0.1054688,0 -0.1171875,0.011719 -0.1992188,0.1171875 l -2.54296871,3.6914062 v 0.2578125 H 2.4841797 v 0.66796876 c 0,0.29296875 -0.023437,0.38671875 -0.6328125,0.38671875 h -0.1875 V -8.671875e-4 C 2.3435547,-0.02430469 2.3552734,-0.02430469 2.8123047,-0.02430469 c 0.4570312,0 0.46875,0 1.1484375,0.0234375025 V -0.25867969 h -0.1875 c -0.609375,0 -0.6328125,-0.09375 -0.6328125,-0.38671875 V -1.3133672 h 0.84375 v -0.2578125 h -0.84375 z m -0.5976563,0.6445313 v 2.9414062 H 0.51542969 Z m 0,0"
       style="fill:#000000;fill-opacity:1;fill-rule:nonzero;stroke:none"
       aria-label="4"
       transform="matrix(1.3333333,0,0,1.3333333,250.56667,72.216)" />
    <path
       id="path40"
       d="m 1.1147422,-4.4774297 c 0.1054687,0.035156 0.421875,0.1054688 0.7617187,0.1054688 0.9960938,0 1.59375,-0.6914063 1.59375,-0.8203125 0,-0.082031 -0.046875,-0.1054688 -0.09375,-0.1054688 -0.011719,0 -0.023437,0 -0.1054687,0.035156 -0.3046875,0.1171875 -0.6679688,0.2226562 -1.1015625,0.2226562 -0.46875,0 -0.8554688,-0.1289062 -1.1132813,-0.2226562 -0.0703125,-0.035156 -0.09375,-0.035156 -0.09375,-0.035156 -0.10546875,0 -0.10546875,0.082031 -0.10546875,0.234375 v 2.3320313 c 0,0.140625 0,0.234375 0.12890625,0.234375 0.0585938,0 0.0820313,-0.035156 0.1289063,-0.09375 0.09375,-0.1171875 0.3984375,-0.5273438 1.0664062,-0.5273438 0.4453125,0 0.6679688,0.3632813 0.7382813,0.515625 0.1289062,0.2929688 0.1523437,0.65625 0.1523437,0.9726563 0,0.2929687 -0.011719,0.71484371 -0.234375,1.06640621 -0.1523437,0.24609375 -0.46875,0.4921875 -0.890625,0.4921875 -0.515625,0 -1.03125,-0.328125 -1.20703125,-0.84375 0.0234375,0 0.0703125,0 0.0703125,0 0.22265625,0 0.39843755,-0.14062501 0.39843755,-0.38671871 0,-0.2929688 -0.2226563,-0.3984375 -0.3867188,-0.3984375 -0.140625,0 -0.3984375,0.082031 -0.3984375,0.421875 0,0.71484371 0.6210938,1.44140621 1.5351563,1.44140621 0.9960937,0 1.8398437,-0.7734375 1.8398437,-1.75781251 0,-0.9257812 -0.6679687,-1.7460937 -1.6054687,-1.7460937 -0.3984375,0 -0.7734375,0.1289062 -1.078125,0.3984375 z m 0,0"
       style="fill:#000000;fill-opacity:1;fill-rule:nonzero;stroke:none"
       aria-label="5"
       transform="matrix(1.3333333,0,0,1.3333333,288.36133,72.216)" />
    <g
       id="g40"
       aria-label="−4"
       transform="matrix(1.3333333,0,0,1.3333333,81.582667,213.22133)">
      <path
         id="path41"
         d="m 5.5659297,-1.8036953 c 0.1289062,0 0.3046875,0 0.3046875,-0.1875 0,-0.1875 -0.1757813,-0.1875 -0.3046875,-0.1875 H 1.0073359 c -0.12890621,0 -0.30468746,0 -0.30468746,0.1875 0,0.1875 0.17578125,0.1875 0.30468746,0.1875 z m 0,0"
         style="fill:#000000;fill-opacity:1;fill-rule:nonzero;stroke:none" />
      <path
         id="path42"
         d="m 9.7260859,-5.1552578 c 0,-0.1640625 0,-0.2226563 -0.1640625,-0.2226563 -0.1054687,0 -0.1171875,0.011719 -0.1992187,0.1171875 l -2.5429688,3.6914063 v 0.2578125 h 2.25 v 0.66796874 c 0,0.29296875 -0.023437,0.38671875 -0.6328125,0.38671875 h -0.1875 V 9.921875e-4 C 8.9292109,-0.02244531 8.9409297,-0.02244531 9.3979609,-0.02244531 c 0.4570313,0 0.46875,0 1.1484371,0.0234374975 V -0.25682031 h -0.1875 c -0.6093746,0 -0.6328121,-0.09375 -0.6328121,-0.38671875 V -1.3115078 H 10.569836 V -1.5693203 H 9.7260859 Z m -0.5976562,0.6445312 v 2.9414063 H 7.1010859 Z m 0,0"
         style="fill:#000000;fill-opacity:1;fill-rule:nonzero;stroke:none" />
    </g>
    <g
       id="g42"
       aria-label="−3"
       transform="matrix(1.3333333,0,0,1.3333333,81.582667,175.42533)">
      <path
         id="path43"
         d="m 5.5659297,-1.8043516 c 0.1289062,0 0.3046875,0 0.3046875,-0.1875 0,-0.1875 -0.1757813,-0.1875 -0.3046875,-0.1875 H 1.0073359 c -0.12890621,0 -0.30468746,0 -0.30468746,0.1875 0,0.1875 0.17578125,0.1875 0.30468746,0.1875 z m 0,0"
         style="fill:#000000;fill-opacity:1;fill-rule:nonzero;stroke:none" />
      <path
         id="path44"
         d="m 8.6010859,-2.6598203 c 0.6328125,0 1.03125,0.4570312 1.03125,1.3007812 0,0.99609379 -0.5742187,1.28906254 -0.9960937,1.28906254 -0.4335938,0 -1.03125,-0.1640625 -1.3125,-0.5859375 0.2929687,0 0.4921875,-0.17578125 0.4921875,-0.44531254 0,-0.2578125 -0.1875,-0.4335937 -0.4453125,-0.4335937 -0.2109375,0 -0.4335938,0.1289062 -0.4335938,0.4570312 0,0.75000004 0.8085938,1.24218754 1.7226563,1.24218754 1.0546875,0 1.7929683,-0.7265625 1.7929683,-1.52343754 0,-0.6679687 -0.5156246,-1.265625 -1.3359371,-1.4414062 0.6328125,-0.2226563 1.1015621,-0.7734375 1.1015621,-1.40625 0,-0.6328125 -0.7148433,-1.0898438 -1.5468746,-1.0898438 -0.8554687,0 -1.5,0.4570313 -1.5,1.0664063 0,0.2929687 0.1992188,0.421875 0.4101563,0.421875 0.2460937,0 0.4101562,-0.1757813 0.4101562,-0.4101563 0,-0.2929687 -0.2578125,-0.3984375 -0.4335937,-0.4101562 0.3398437,-0.4335938 0.9492187,-0.46875 1.0898437,-0.46875 0.2109375,0 0.8085938,0.070312 0.8085938,0.890625 0,0.5625 -0.2226563,0.890625 -0.3398438,1.0195312 -0.234375,0.2460938 -0.421875,0.2578125 -0.9023437,0.2929688 -0.1523438,0.011719 -0.2226563,0.023437 -0.2226563,0.1171875 0,0.1171875 0.070312,0.1171875 0.2109375,0.1171875 z m 0,0"
         style="fill:#000000;fill-opacity:1;fill-rule:nonzero;stroke:none" />
    </g>
    <g
       id="g44"
       aria-label="−2"
       transform="matrix(1.3333333,0,0,1.3333333,81.582667,137.63067)">
      <path
         id="path45"
         d="m 5.5659297,-1.8060078 c 0.1289062,0 0.3046875,0 0.3046875,-0.1875 0,-0.1875 -0.1757813,-0.1875 -0.3046875,-0.1875 H 1.0073359 c -0.12890621,0 -0.30468746,0 -0.30468746,0.1875 0,0.1875 0.17578125,0.1875 0.30468746,0.1875 z m 0,0"
         style="fill:#000000;fill-opacity:1;fill-rule:nonzero;stroke:none" />
      <path
         id="path46"
         d="m 8.8354609,-1.6302266 c 0.1289063,-0.1171875 0.4570313,-0.375 0.5859375,-0.4921875 0.4921875,-0.4570312 0.9609376,-0.890625 0.9609376,-1.6171875 0,-0.9492187 -0.7968751,-1.5585937 -1.7929688,-1.5585937 -0.9492188,0 -1.5820313,0.7265625 -1.5820313,1.4296875 0,0.3984375 0.3164063,0.4453125 0.421875,0.4453125 0.1640625,0 0.4101563,-0.1171875 0.4101563,-0.421875 0,-0.4101563 -0.3984375,-0.4101563 -0.4921875,-0.4101563 0.234375,-0.5859375 0.7734375,-0.7851562 1.1601562,-0.7851562 0.7382813,0 1.125,0.6328125 1.125,1.3007812 0,0.8320313 -0.5859375,1.4296875 -1.5234375,2.4023438 l -1.0078125,1.03124999 c -0.09375,0.09375 -0.09375,0.10546875 -0.09375,0.3046875 H 10.15968 l 0.222656,-1.42968749 h -0.246094 c -0.02344,0.1640625 -0.08203,0.56249999 -0.1757811,0.71484374 -0.046875,0.0585938 -0.65625,0.0585938 -0.7851562,0.0585938 H 7.7573359 Z m 0,0"
         style="fill:#000000;fill-opacity:1;fill-rule:nonzero;stroke:none" />
    </g>
    <g
       id="g46"
       aria-label="−1"
       transform="matrix(1.3333333,0,0,1.3333333,81.582667,99.836)">
      <path
         id="path47"
         d="m 5.5659297,-1.8047344 c 0.1289062,0 0.3046875,0 0.3046875,-0.1875 0,-0.1875 -0.1757813,-0.1875 -0.3046875,-0.1875 H 1.0073359 c -0.12890621,0 -0.30468746,0 -0.30468746,0.1875 0,0.1875 0.17578125,0.1875 0.30468746,0.1875 z m 0,0"
         style="fill:#000000;fill-opacity:1;fill-rule:nonzero;stroke:none" />
      <path
         id="path48"
         d="m 9.0932734,-5.0742656 c 0,-0.2226563 -0.023437,-0.2226563 -0.234375,-0.2226563 -0.328125,0.3164063 -0.75,0.5039063 -1.5117187,0.5039063 v 0.2695312 c 0.2226562,0 0.6445312,0 1.1132812,-0.2226562 v 4.08984373 c 0,0.29296875 -0.023437,0.3984375 -0.7851562,0.3984375 h -0.28125 V -4.6875e-5 c 0.328125,-0.023437495 1.0195312,-0.023437495 1.3710937,-0.023437495 0.3632813,0 1.0546875,0 1.3828126,0.023437495 V -0.25785937 H 9.8667109 c -0.75,0 -0.7734375,-0.10546875 -0.7734375,-0.3984375 z m 0,0"
         style="fill:#000000;fill-opacity:1;fill-rule:nonzero;stroke:none" />
    </g>
    <path
       id="path49"
       d="m 3.9009922,-2.5440234 c 0,-0.8554688 -0.09375,-1.3710938 -0.3515625,-1.875 -0.3515625,-0.703125 -0.9960938,-0.8789063 -1.4414063,-0.8789063 -0.9960937,0 -1.37109371,0.75 -1.47656246,0.9726563 -0.29296875,0.5742187 -0.3046875,1.3710937 -0.3046875,1.78125 0,0.5273437 0.0234375,1.3359375 0.41015625,1.96874996 0.36328121,0.5859375 0.94921871,0.73828125 1.37109371,0.73828125 0.3867188,0 1.0664063,-0.1171875 1.4648438,-0.90234375 0.2929687,-0.57421876 0.328125,-1.28906246 0.328125,-1.80468746 z m -1.7929688,2.48437496 c -0.2695312,0 -0.8203125,-0.12890625 -0.984375,-0.96093746 -0.09375,-0.4570313 -0.09375,-1.2070313 -0.09375,-1.6171875 0,-0.5507813 0,-1.1132813 0.09375,-1.546875 0.1640625,-0.8085938 0.7851563,-0.890625 0.984375,-0.890625 0.2695313,0 0.8203125,0.1289062 0.984375,0.8554687 0.09375,0.4453125 0.09375,1.0429688 0.09375,1.5820313 0,0.46875 0,1.1835937 -0.09375,1.6289062 -0.1640625,0.84375001 -0.7148437,0.94921876 -0.984375,0.94921876 z m 0,0"
       style="fill:#000000;fill-opacity:1;fill-rule:nonzero;stroke:none"
       aria-label="0"
       transform="matrix(1.3333333,0,0,1.3333333,93.021333,69.56)" />
    <path
       id="path50"
       d="m 2.5092031,-5.0755625 c 0,-0.2226562 -0.023437,-0.2226562 -0.234375,-0.2226562 -0.328125,0.3164062 -0.75,0.5039062 -1.51171872,0.5039062 v 0.2695313 c 0.22265625,0 0.64453122,0 1.11328122,-0.2226563 v 4.08984375 c 0,0.29296875 -0.023437,0.3984375 -0.7851562,0.3984375 H 0.80998438 v 0.2578125 c 0.32812502,-0.0234375 1.01953122,-0.0234375 1.37109372,-0.0234375 0.3632813,0 1.0546875,0 1.3828125,0.0234375 v -0.2578125 h -0.28125 c -0.75,0 -0.7734375,-0.10546875 -0.7734375,-0.3984375 z m 0,0"
       style="fill:#000000;fill-opacity:1;fill-rule:nonzero;stroke:none"
       aria-label="1"
       transform="matrix(1.3333333,0,0,1.3333333,90.365333,24.798667)" />
  </g>
</svg>
